<svg id="Capa_1" enable-background="new 0 0 512 512" height="512" viewBox="0 0 512 512" width="512" xmlns="http://www.w3.org/2000/svg">
<path style="fill:#ffffff;" d="m75 452h61c8.291 0 15-6.709 15-15v-152c0-8.291-6.709-15-15-15h-61c-8.291 0-15 6.709-15 15v152c0 8.291 6.709 15 15 15z"/>
<path style="fill:#ffffff;" d="m256 452c8.291 0 15-6.709 15-15v-272c0-8.291-6.709-15-15-15h-60c-8.291 0-15 6.709-15 15v272c0 8.291 6.709 15 15 15z"/>
<path style="fill:#ffffff;" d="m376 452c8.291 0 15-6.709 15-15v-212c0-8.291-6.709-15-15-15h-60c-8.291 0-15 6.709-15 15v212c0 8.291 6.709 15 15 15z"/>
<path style="fill:#ffffff;" d="m497 120h-61c-8.291 0-15 6.709-15 15v302c0 8.291 6.709 15 15 15h61c8.291 0 15-6.709 15-15v-302c0-8.291-6.709-15-15-15z"/>
<path style="fill:#ffffff;" d="m466 0c-24.814 0-45 20.186-45 45 0 4.669.916 9.084 2.241 13.321l-52.333 39.249c-7.139-4.767-15.698-7.57-24.908-7.57-12.101 0-23.055 4.856-31.15 12.653l-44.401-22.2c.221-1.807.551-3.585.551-5.453 0-24.814-20.186-45-45-45s-45 20.186-45 45c0 5.416 1.113 10.545 2.875 15.359l-59.766 63.514c-5.552-2.456-11.658-3.873-18.109-3.873-24.814 0-46 20.186-46 45s21.186 45 46 45 45-20.186 45-45c0-7.399-1.967-14.282-5.143-20.446l57.367-60.965c6.707 3.976 14.43 6.411 22.776 6.411 12.101 0 23.055-4.856 31.15-12.653l44.401 22.2c-.221 1.807-.551 3.585-.551 5.453 0 24.814 20.186 45 45 45s45-20.186 45-45c0-4.671-.917-9.089-2.245-13.33l52.328-39.243c7.141 4.77 15.703 7.573 24.917 7.573 24.814 0 46-20.186 46-45s-21.186-45-46-45z"/>
<path style="fill:#ffffff;" d="m497 482h-467v-467c0-8.291-6.709-15-15-15s-15 6.709-15 15v482c0 8.291 6.709 15 15 15h482c8.291 0 15-6.709 15-15s-6.709-15-15-15z"/>
</svg>