<?xml version="1.0" standalone="no"?><!DOCTYPE svg PUBLIC "-//W3C//DTD SVG 1.1//EN" "http://www.w3.org/Graphics/SVG/1.1/DTD/svg11.dtd"><svg class="icon" height="512" viewBox="0 0 1024 1024" version="1.1" xmlns="http://www.w3.org/2000/svg"><path d="M432.746667 835.328a893.930667 893.930667 0 0 1-18.090667-32.256l-47.189333-84.010667-21.610667 34.133334c-10.026667 18.837333-20.650667 37.738667-31.274667 56.554666a3135.573333 3135.573333 0 0 0-32.042666 58.005334l-4.586667 8.554666 88.810667 93.717334 88.704-93.717334-4.522667-8.490666c-5.696-10.773333-11.968-21.632-18.197333-32.490667z" fill="#1288EE" /><path d="M630.058667 764.309333a381.333333 381.333333 0 0 0-87.232-80.192c-19.626667-12.906667-37.504-22.762667-54.762667-29.973333-2.581333-1.045333-5.162667-2.112-7.914667-3.178667 57.770667-40.576 91.818667-95.786667 101.077334-164.032 1.664-12.416 2.133333-24.597333 2.048-36.650666h46.101333v171.370666h46.506667v-171.370666h168.490666v-46.485334h-168.490666v-168.512h-46.506667v168.512h-50.88c-7.957333-38.784-25.493333-74.858667-52.714667-106.624-44.629333-49.770667-100.416-76.074667-161.344-76.074666-61.610667 0-120.490667 27.818667-161.344 76.074666-43.733333 48.618667-62.869333 111.594667-55.402666 182.08 6.805333 69.482667 39.253333 124.437333 99.84 168.277334l-0.704 0.32c-16.256 6.72-34.794667 16.597333-46.72 23.594666-13.376 7.722667-26.304 16.341333-38.442667 25.493334-25.941333 19.925333-48.32 42.133333-66.56 66.218666a410.837333 410.837333 0 0 0-29.354667 44.736c-20.906667 36.757333-35.093333 78.421333-42.026666 122.794667-3.882667 16.405333 4.266667 29.205333 13.610666 34.197333 14.037333 7.296 27.285333 4.501333 38.506667-7.488a29.866667 29.866667 0 0 0 8.042667-20.970666c13.162667-67.114667 41.450667-121.749333 84.288-162.346667 75.84-73.152 164.821333-97.664 262.912-73.109333 80.362667 21.248 141.397333 70.378667 181.546666 146.325333 15.36 27.882667 25.984 60.032 32.576 99.114667a29.141333 29.141333 0 0 0 28.757334 22.869333c2.730667 0 5.44-0.362667 8-1.002667 14.570667-3.818667 23.616-16.128 23.317333-34.922666-4.544-21.589333-9.258667-43.968-16.533333-61.866667-13.461333-33.152-30.869333-71.786667-58.688-107.178667zM362.24 283.733333c89.813333 0 162.837333 77.482667 162.837333 172.757334 0 47.296-17.493333 91.626667-48.661333 122.325333-29.12 32.981333-67.797333 50.410667-111.936 50.410667-44.309333 0-85.802667-18.026667-116.8-50.773334-31.594667-33.216-48.256-75.413333-48.256-121.962666 0-95.274667 73.024-172.757333 162.816-172.757334z" fill="#1288EE" /><path d="M987.541333 124.138667a80.32 80.32 0 0 1-80.256-80.234667v-16.554667H430.08v16.554667a80.256 80.256 0 0 1-80.128 80.234667h-16.597333v66.048h33.109333V155.904a113.152 113.152 0 0 0 95.509333-95.445333h413.504a113.173333 113.173333 0 0 0 95.530667 95.445333v373.12c0 104.96-118.592 233.557333-236.16 314.453333l-5.013333 3.52 18.666666 27.285334 5.098667-3.541334c115.562667-79.573333 250.496-216.832 250.496-341.738666V124.138667h-16.554667z" fill="#1288EE" /><path d="M919.530667 532.373333m-37.141334 0a37.141333 37.141333 0 1 0 74.282667 0 37.141333 37.141333 0 1 0-74.282667 0Z" fill="#1288EE" /><path d="M922.773333 591.381333l2.410667-5.653333-30.357333-12.928-2.453334 5.696c-25.301333 59.306667-95.850667 134.592-184.064 196.394667l-5.056 3.498666 18.965334 27.114667 5.056-3.52c94.442667-66.154667 167.509333-144.874667 195.498666-210.602667zM902.954667 192.533333h33.109333v294.997334h-33.109333zM493.781333 100.074667H843.733333v33.173333H493.781333zM872.96 125.610667c-20.48 0-37.12 16.618667-37.12 37.098666a37.077333 37.077333 0 1 0 37.12-37.098666z" fill="#1288EE" /><path d="M464.618667 162.666667m-37.056 0a37.056 37.056 0 1 0 74.112 0 37.056 37.056 0 1 0-74.112 0Z" fill="#1288EE" /></svg>